<svg xmlns="http://www.w3.org/2000/svg" width="1100" height="1435" viewBox="0 0 1100 1435">
  <defs>
    <marker id="arrow" viewBox="0 0 10 10" refX="9" refY="5" markerWidth="8" markerHeight="8" orient="auto-start-reverse">
      <path d="M 0 0 L 10 5 L 0 10 z" fill="#222"/>
    </marker>
    <style>
      .title { font: 700 24px Arial, Helvetica, sans-serif; fill: #111; }
      .header { font: 700 20px Arial, Helvetica, sans-serif; fill: #111; }
      .label { font: 400 14px Arial, Helvetica, sans-serif; fill: #111; }
      .branch { font: 700 13px Arial, Helvetica, sans-serif; fill: #111; }
      .box { fill: #f7f7f7; stroke: #222; stroke-width: 1.5; }
      .line { stroke: #222; stroke-width: 2; fill: none; marker-end: url(#arrow); }
      .plain { stroke: #222; stroke-width: 2; fill: none; }
      .diamond { fill: #f7f7f7; stroke: #222; stroke-width: 1.5; }
    </style>
  </defs>
  <rect x="0" y="0" width="1100" height="1435" fill="#f2f2f2"/>
<text class="title" x="550" y="35" text-anchor="middle">Diagram czynności - Wprowadzanie wyników partii</text><text class="header" x="190" y="75" text-anchor="middle">Sędzia</text><text class="header" x="820" y="75" text-anchor="middle">System turniejowy</text><line x1="475" y1="90" x2="475" y2="1395" stroke="#111" stroke-width="2"/><circle cx="215.0" cy="110" r="12" fill="#111" stroke="#111" stroke-width="1.5"/><path class="line" d="M 215.0 122 L 215.0 170"/><rect class="box" x="90" y="170" width="250" height="52" rx="12" ry="12"/><text class="label" x="215.0" y="200.9" text-anchor="middle" font-size="14" font-weight="400" font-family="Arial, Helvetica, sans-serif">Zaloguj się do systemu</text><path class="line" d="M 215.0 222 L 215.0 287"/><rect class="box" x="90" y="287" width="250" height="52" rx="12" ry="12"/><text class="label" x="215.0" y="317.9" text-anchor="middle" font-size="14" font-weight="400" font-family="Arial, Helvetica, sans-serif">Wybierz rundę i partię</text><path class="line" d="M 215.0 339 L 215.0 404"/><rect class="box" x="90" y="404" width="250" height="52" rx="12" ry="12"/><text class="label" x="215.0" y="434.9" text-anchor="middle" font-size="14" font-weight="400" font-family="Arial, Helvetica, sans-serif">Wpisz wynik partii</text><rect class="box" x="690" y="402" width="270" height="52" rx="12" ry="12"/><text class="label" x="825.0" y="432.9" text-anchor="middle" font-size="14" font-weight="400" font-family="Arial, Helvetica, sans-serif">Sprawdź format wyniku</text><path class="line" d="M 340 430 L 690 430"/><path class="line" d="M 825.0 454 L 825.0 491"/><polygon class="diamond" points="825.0,491.0 905.0,545 825.0,599.0 745.0,545"/><text class="label" x="825.0" y="541.15" text-anchor="middle" font-size="14" font-weight="400" font-family="Arial, Helvetica, sans-serif">Format<tspan x="825.0" dy="17.5">poprawny?</tspan></text><text class="branch" x="610" y="516" text-anchor="middle" font-family="Arial, Helvetica, sans-serif">[nie]</text><path class="line" d="M 745.0 545 L 370 545"/><rect class="box" x="70" y="519" width="300" height="52" rx="12" ry="12"/><text class="label" x="220.0" y="549.9" text-anchor="middle" font-size="14" font-weight="400" font-family="Arial, Helvetica, sans-serif">Wyświetl błąd: niepoprawny format</text><path class="line" d="M 220.0 571 L 220.0 626"/><circle cx="220.0" cy="645" r="13" fill="none" stroke="#111" stroke-width="2"/><circle cx="220.0" cy="645" r="7" fill="#111" stroke="#111" stroke-width="1"/><text class="branch" x="857.0" y="618" text-anchor="middle" font-family="Arial, Helvetica, sans-serif">[tak]</text><path class="line" d="M 825.0 599 L 825.0 654"/><rect class="box" x="690" y="654" width="270" height="52" rx="12" ry="12"/><text class="label" x="825.0" y="684.9" text-anchor="middle" font-size="14" font-weight="400" font-family="Arial, Helvetica, sans-serif">Sprawdź status partii</text><path class="line" d="M 825.0 706 L 825.0 746"/><polygon class="diamond" points="825.0,744.0 912.5,800 825.0,856.0 737.5,800"/><text class="label" x="825.0" y="796.15" text-anchor="middle" font-size="14" font-weight="400" font-family="Arial, Helvetica, sans-serif">Partia zakończona<tspan x="825.0" dy="17.5">lub zablokowana?</tspan></text><text class="branch" x="610" y="774" text-anchor="middle" font-family="Arial, Helvetica, sans-serif">[tak]</text><path class="line" d="M 737.5 800 L 370 800"/><rect class="box" x="70" y="774" width="300" height="52" rx="12" ry="12"/><text class="label" x="220.0" y="804.9" text-anchor="middle" font-size="14" font-weight="400" font-family="Arial, Helvetica, sans-serif">Wyświetl błąd: edycja niedozwolona</text><path class="line" d="M 220.0 826 L 220.0 881"/><circle cx="220.0" cy="900" r="13" fill="none" stroke="#111" stroke-width="2"/><circle cx="220.0" cy="900" r="7" fill="#111" stroke="#111" stroke-width="1"/><text class="branch" x="855.0" y="860" text-anchor="middle" font-family="Arial, Helvetica, sans-serif">[nie]</text><path class="line" d="M 825.0 856 L 825.0 906"/><rect class="box" x="690" y="906" width="270" height="52" rx="12" ry="12"/><text class="label" x="825.0" y="936.9" text-anchor="middle" font-size="14" font-weight="400" font-family="Arial, Helvetica, sans-serif">Sprawdź możliwość edycji wyniku</text><path class="line" d="M 825.0 958 L 825.0 1000"/><polygon class="diamond" points="825.0,1004.0 905.0,1058 825.0,1112.0 745.0,1058"/><text class="label" x="825.0" y="1054.15" text-anchor="middle" font-size="14" font-weight="400" font-family="Arial, Helvetica, sans-serif">Można<tspan x="825.0" dy="17.5">edytować?</tspan></text><text class="branch" x="610" y="1030" text-anchor="middle" font-family="Arial, Helvetica, sans-serif">[nie]</text><path class="line" d="M 745.0 1058 L 370 1058"/><rect class="box" x="70" y="1032" width="300" height="62" rx="12" ry="12"/><text class="label" x="220.0" y="1059.15" text-anchor="middle" font-size="14" font-weight="400" font-family="Arial, Helvetica, sans-serif">Wyświetl błąd: brak uprawnień<tspan x="220.0" dy="17.5">lub limit edycji</tspan></text><path class="line" d="M 220.0 1094 L 220.0 1149"/><circle cx="220.0" cy="1168" r="13" fill="none" stroke="#111" stroke-width="2"/><circle cx="220.0" cy="1168" r="7" fill="#111" stroke="#111" stroke-width="1"/><text class="branch" x="857.0" y="1127" text-anchor="middle" font-family="Arial, Helvetica, sans-serif">[tak]</text><path class="line" d="M 825.0 1112 L 825.0 1146"/><rect class="box" x="690" y="1146" width="270" height="52" rx="12" ry="12"/><text class="label" x="825.0" y="1176.9" text-anchor="middle" font-size="14" font-weight="400" font-family="Arial, Helvetica, sans-serif">Zapisz wynik w bazie</text><path class="line" d="M 825.0 1198 L 825.0 1226"/><rect class="box" x="690" y="1226" width="270" height="52" rx="12" ry="12"/><text class="label" x="825.0" y="1256.9" text-anchor="middle" font-size="14" font-weight="400" font-family="Arial, Helvetica, sans-serif">Zaktualizuj tabelę turniejową</text><path class="line" d="M 825.0 1278 L 825.0 1306"/><rect class="box" x="690" y="1306" width="270" height="52" rx="12" ry="12"/><text class="label" x="825.0" y="1336.9" text-anchor="middle" font-size="14" font-weight="400" font-family="Arial, Helvetica, sans-serif">Wyświetl potwierdzenie zapisu</text><path class="line" d="M 825.0 1358 L 825.0 1400"/><circle cx="825.0" cy="1419" r="13" fill="none" stroke="#111" stroke-width="2"/><circle cx="825.0" cy="1419" r="7" fill="#111" stroke="#111" stroke-width="1"/></svg>